
<svg
    width="202"
    height="47"
    viewBox="0 0 663 154"
    fill="none"
    xmlns="http://www.w3.org/2000/svg"
>
    <mask
        id="mask0_307_11"
        style="mask-type:alpha"
        maskUnits="userSpaceOnUse"
        x="0"
        y="0"
        width="681"
        height="165"
    >
        <path
            d="M58.0259 37.1494L100.489 110.198C101.495 111.929 100.848 114.15 99.0686 115.068L56.6051 136.982C55.5981 137.502 54.4019 137.502 53.3949 136.982L10.9314 115.068C9.15244 114.15 8.50455 111.929 9.51061 110.198L51.9741 37.1494C53.3235 34.828 56.6765 34.828 58.0259 37.1494Z"
            stroke="black"
            stroke-width="11"
        />
        <path
            d="M146.2 56.5H187.8V62.5H146.2V56.5ZM163.8 61.86H170.2V108.5H163.8V61.86ZM215.317 95.62H221.317C220.89 98.2333 219.93 100.58 218.437 102.66C216.997 104.687 215.077 106.313 212.677 107.54C210.33 108.713 207.61 109.3 204.517 109.3C200.784 109.3 197.424 108.42 194.437 106.66C191.45 104.847 189.077 102.393 187.317 99.3C185.61 96.1533 184.757 92.58 184.757 88.58C184.757 84.58 185.584 81.0067 187.237 77.86C188.944 74.7133 191.264 72.2333 194.197 70.42C197.13 68.6067 200.437 67.7 204.117 67.7C208.01 67.7 211.29 68.58 213.957 70.34C216.677 72.0467 218.677 74.58 219.957 77.94C221.29 81.2467 221.824 85.3267 221.557 90.18H191.157C191.424 92.7933 192.144 95.0867 193.317 97.06C194.49 99.0333 196.037 100.58 197.957 101.7C199.877 102.767 202.064 103.3 204.517 103.3C207.237 103.3 209.53 102.607 211.397 101.22C213.317 99.78 214.624 97.9133 215.317 95.62ZM204.357 73.7C201.05 73.7 198.277 74.66 196.037 76.58C193.797 78.5 192.304 81.1133 191.557 84.42H214.997C214.784 80.9 213.637 78.2333 211.557 76.42C209.53 74.6067 207.13 73.7 204.357 73.7ZM226.228 68.5H249.748V74.5H226.228V68.5ZM234.788 58.1H241.188V108.5H234.788V58.1ZM257.309 68.5H263.709V108.5H257.309V68.5ZM276.509 74.5C273.789 74.5 271.496 75.1933 269.629 76.58C267.816 77.9133 266.376 79.5667 265.309 81.54C264.296 83.46 263.629 85.3267 263.309 87.14L263.229 82.5C263.229 82.02 263.336 81.22 263.549 80.1C263.763 78.98 264.163 77.7267 264.749 76.34C265.336 74.9 266.109 73.54 267.069 72.26C268.083 70.9267 269.363 69.8333 270.909 68.98C272.456 68.1267 274.323 67.7 276.509 67.7V74.5ZM298.836 109.3C295.689 109.3 292.782 108.42 290.116 106.66C287.502 104.847 285.396 102.393 283.796 99.3C282.249 96.1533 281.476 92.58 281.476 88.58C281.476 84.58 282.276 81.0067 283.876 77.86C285.476 74.7133 287.636 72.2333 290.356 70.42C293.129 68.6067 296.222 67.7 299.636 67.7C303.369 67.7 306.196 68.66 308.116 70.58C310.089 72.4467 311.422 74.9533 312.116 78.1C312.862 81.2467 313.236 84.74 313.236 88.58C313.236 90.6067 313.022 92.82 312.596 95.22C312.169 97.5667 311.422 99.8333 310.356 102.02C309.342 104.153 307.902 105.913 306.036 107.3C304.169 108.633 301.769 109.3 298.836 109.3ZM300.436 103.22C303.156 103.22 305.396 102.553 307.156 101.22C308.969 99.8867 310.302 98.1267 311.156 95.94C312.009 93.7 312.436 91.2467 312.436 88.58C312.436 85.6467 311.982 83.0867 311.076 80.9C310.222 78.66 308.889 76.9267 307.076 75.7C305.316 74.42 303.102 73.78 300.436 73.78C296.436 73.78 293.342 75.1933 291.156 78.02C288.969 80.7933 287.876 84.3133 287.876 88.58C287.876 91.4067 288.409 93.94 289.476 96.18C290.596 98.3667 292.089 100.1 293.956 101.38C295.876 102.607 298.036 103.22 300.436 103.22ZM312.436 68.5H318.836V108.5H312.996C312.996 108.5 312.942 108.02 312.836 107.06C312.782 106.1 312.702 104.98 312.596 103.7C312.489 102.42 312.436 101.353 312.436 100.5V68.5ZM357.743 108.5V83.38C357.743 81.3 357.423 79.5933 356.783 78.26C356.143 76.8733 355.183 75.8333 353.903 75.14C352.623 74.4467 351.023 74.1 349.103 74.1C346.916 74.1 344.889 74.66 343.023 75.78C341.156 76.9 339.609 78.4467 338.383 80.42C337.209 82.34 336.489 84.58 336.223 87.14L336.143 82.5C336.409 80.26 336.943 78.2333 337.743 76.42C338.596 74.6067 339.636 73.06 340.863 71.78C342.143 70.4467 343.583 69.4333 345.182 68.74C346.836 68.0467 348.569 67.7 350.383 67.7C352.516 67.7 354.436 68.02 356.143 68.66C357.849 69.3 359.289 70.2333 360.463 71.46C361.636 72.6867 362.543 74.18 363.183 75.94C363.823 77.6467 364.143 79.5933 364.143 81.78V108.5H357.743ZM330.223 108.5V52.5H336.623V108.5H330.223ZM402.895 95.62H408.895C408.468 98.2333 407.508 100.58 406.015 102.66C404.575 104.687 402.655 106.313 400.255 107.54C397.908 108.713 395.188 109.3 392.095 109.3C388.362 109.3 385.002 108.42 382.015 106.66C379.028 104.847 376.655 102.393 374.895 99.3C373.188 96.1533 372.335 92.58 372.335 88.58C372.335 84.58 373.162 81.0067 374.815 77.86C376.522 74.7133 378.842 72.2333 381.775 70.42C384.708 68.6067 388.015 67.7 391.695 67.7C395.588 67.7 398.868 68.58 401.535 70.34C404.255 72.0467 406.255 74.58 407.535 77.94C408.868 81.2467 409.402 85.3267 409.135 90.18H378.735C379.002 92.7933 379.722 95.0867 380.895 97.06C382.068 99.0333 383.615 100.58 385.535 101.7C387.455 102.767 389.642 103.3 392.095 103.3C394.815 103.3 397.108 102.607 398.975 101.22C400.895 99.78 402.202 97.9133 402.895 95.62ZM391.935 73.7C388.628 73.7 385.855 74.66 383.615 76.58C381.375 78.5 379.882 81.1133 379.135 84.42H402.575C402.362 80.9 401.215 78.2333 399.135 76.42C397.108 74.6067 394.708 73.7 391.935 73.7ZM432.508 109.3C429.308 109.3 426.374 108.42 423.708 106.66C421.094 104.847 419.014 102.393 417.467 99.3C415.921 96.1533 415.148 92.58 415.148 88.58C415.148 84.58 415.894 81.0067 417.388 77.86C418.881 74.7133 420.934 72.2333 423.548 70.42C426.161 68.6067 429.148 67.7 432.508 67.7C435.494 67.7 437.921 68.26 439.788 69.38C441.708 70.4467 443.174 71.94 444.188 73.86C445.201 75.78 445.894 77.9933 446.268 80.5C446.694 83.0067 446.908 85.7 446.908 88.58C446.908 90.6067 446.694 92.82 446.268 95.22C445.841 97.5667 445.094 99.8333 444.028 102.02C443.014 104.153 441.574 105.913 439.708 107.3C437.841 108.633 435.441 109.3 432.508 109.3ZM434.108 103.22C436.828 103.22 439.068 102.553 440.828 101.22C442.641 99.8867 443.974 98.1267 444.828 95.94C445.681 93.7 446.108 91.2467 446.108 88.58C446.108 85.6467 445.654 83.0867 444.748 80.9C443.894 78.66 442.561 76.9267 440.748 75.7C438.988 74.42 436.774 73.78 434.108 73.78C430.108 73.78 427.014 75.1933 424.828 78.02C422.641 80.7933 421.548 84.3133 421.548 88.58C421.548 91.4067 422.081 93.94 423.148 96.18C424.268 98.3667 425.761 100.1 427.628 101.38C429.548 102.607 431.708 103.22 434.108 103.22ZM446.108 52.5H452.508V108.5H446.668C446.561 107.327 446.428 105.94 446.268 104.34C446.161 102.74 446.108 101.46 446.108 100.5V52.5ZM464.106 68.5H470.506V108.5H464.106V68.5ZM483.306 74.5C480.586 74.5 478.293 75.1933 476.426 76.58C474.613 77.9133 473.173 79.5667 472.106 81.54C471.093 83.46 470.426 85.3267 470.106 87.14L470.026 82.5C470.026 82.02 470.133 81.22 470.346 80.1C470.56 78.98 470.96 77.7267 471.546 76.34C472.133 74.9 472.906 73.54 473.866 72.26C474.88 70.9267 476.16 69.8333 477.706 68.98C479.253 68.1267 481.12 67.7 483.306 67.7V74.5ZM507.873 109.3C504.459 109.3 501.259 108.473 498.273 106.82C495.286 105.167 492.859 102.793 490.993 99.7C489.179 96.5533 488.273 92.8467 488.273 88.58C488.273 84.3133 489.179 80.6333 490.993 77.54C492.859 74.3933 495.286 71.9667 498.273 70.26C501.259 68.5533 504.459 67.7 507.873 67.7C511.286 67.7 514.459 68.5533 517.393 70.26C520.379 71.9667 522.779 74.3933 524.593 77.54C526.406 80.6333 527.313 84.3133 527.313 88.58C527.313 92.8467 526.406 96.5533 524.593 99.7C522.779 102.793 520.379 105.167 517.393 106.82C514.459 108.473 511.286 109.3 507.873 109.3ZM507.873 103.3C510.113 103.3 512.219 102.74 514.193 101.62C516.166 100.5 517.766 98.8467 518.993 96.66C520.273 94.42 520.913 91.7267 520.913 88.58C520.913 85.4333 520.273 82.7667 518.993 80.58C517.766 78.34 516.166 76.6333 514.193 75.46C512.219 74.2867 510.113 73.7 507.873 73.7C505.633 73.7 503.499 74.2867 501.473 75.46C499.499 76.58 497.873 78.26 496.593 80.5C495.313 82.6867 494.673 85.38 494.673 88.58C494.673 91.7267 495.286 94.42 496.513 96.66C497.793 98.8467 499.446 100.5 501.473 101.62C503.499 102.74 505.633 103.3 507.873 103.3ZM535.434 68.5H541.834V108.5H535.434V68.5ZM555.594 67.7C557.728 67.7 559.648 68.02 561.354 68.66C563.061 69.3 564.501 70.2333 565.674 71.46C566.848 72.6867 567.754 74.18 568.394 75.94C569.034 77.6467 569.354 79.5933 569.354 81.78V108.5H562.954V83.38C562.954 80.2867 562.234 77.9667 560.794 76.42C559.354 74.8733 557.194 74.1 554.314 74.1C552.128 74.1 550.101 74.66 548.234 75.78C546.368 76.9 544.821 78.4467 543.594 80.42C542.421 82.34 541.701 84.58 541.434 87.14L541.354 82.5C541.621 80.26 542.154 78.2333 542.954 76.42C543.808 74.6067 544.848 73.06 546.074 71.78C547.354 70.4467 548.794 69.4333 550.394 68.74C552.048 68.0467 553.781 67.7 555.594 67.7ZM603.488 94.9V88.9H628.448V94.9H603.488ZM592.928 108.5L612.688 56.5H619.408L639.328 108.5H632.448L615.088 61.46H617.008L599.648 108.5H592.928ZM648.938 56.5H655.338V108.5H648.938V56.5Z"
            fill="black"
        />
    </mask>
    <g mask="url(#mask0_307_11)">
        <rect
            y="1"
            width="663"
            height="151"
            fill="url(#paint0_linear_307_11)"
        />
    </g>
    <defs>
        <linearGradient
            id="paint0_linear_307_11"
            x1="7.18699"
            y1="76.5"
            x2="662.935"
            y2="87.6162"
            gradientUnits="userSpaceOnUse"
        >
            <stop stop-color="#6CE5FF" />
            <stop offset="1" stop-color="#AF6CF2" />
        </linearGradient>
    </defs>
</svg>
