<svg width="518" height="136" viewBox="0 0 518 136" fill="none" xmlns="http://www.w3.org/2000/svg">
<path d="M1.2 43H42.8V49H1.2V43ZM18.8 48.36H25.2V95H18.8V48.36ZM70.3169 82.12H76.3169C75.8902 84.7333 74.9302 87.08 73.4369 89.16C71.9969 91.1867 70.0769 92.8133 67.6769 94.04C65.3302 95.2133 62.6102 95.8 59.5169 95.8C55.7835 95.8 52.4235 94.92 49.4369 93.16C46.4502 91.3467 44.0769 88.8933 42.3169 85.8C40.6102 82.6533 39.7569 79.08 39.7569 75.08C39.7569 71.08 40.5835 67.5067 42.2369 64.36C43.9435 61.2133 46.2635 58.7333 49.1969 56.92C52.1302 55.1067 55.4369 54.2 59.1169 54.2C63.0102 54.2 66.2902 55.08 68.9569 56.84C71.6769 58.5467 73.6769 61.08 74.9569 64.44C76.2902 67.7467 76.8235 71.8267 76.5569 76.68H46.1569C46.4235 79.2933 47.1435 81.5867 48.3169 83.56C49.4902 85.5333 51.0369 87.08 52.9569 88.2C54.8769 89.2667 57.0635 89.8 59.5169 89.8C62.2369 89.8 64.5302 89.1067 66.3969 87.72C68.3169 86.28 69.6235 84.4133 70.3169 82.12ZM59.3569 60.2C56.0502 60.2 53.2769 61.16 51.0369 63.08C48.7969 65 47.3035 67.6133 46.5569 70.92H69.9969C69.7835 67.4 68.6369 64.7333 66.5569 62.92C64.5302 61.1067 62.1302 60.2 59.3569 60.2ZM81.2281 55H104.748V61H81.2281V55ZM89.7881 44.6H96.1881V95H89.7881V44.6ZM112.309 55H118.709V95H112.309V55ZM131.509 61C128.789 61 126.496 61.6933 124.629 63.08C122.816 64.4133 121.376 66.0667 120.309 68.04C119.296 69.96 118.629 71.8267 118.309 73.64L118.229 69C118.229 68.52 118.336 67.72 118.549 66.6C118.763 65.48 119.163 64.2267 119.749 62.84C120.336 61.4 121.109 60.04 122.069 58.76C123.083 57.4267 124.363 56.3333 125.909 55.48C127.456 54.6267 129.323 54.2 131.509 54.2V61ZM153.836 95.8C150.689 95.8 147.782 94.92 145.116 93.16C142.502 91.3467 140.396 88.8933 138.796 85.8C137.249 82.6533 136.476 79.08 136.476 75.08C136.476 71.08 137.276 67.5067 138.876 64.36C140.476 61.2133 142.636 58.7333 145.356 56.92C148.129 55.1067 151.222 54.2 154.636 54.2C158.369 54.2 161.196 55.16 163.116 57.08C165.089 58.9467 166.422 61.4533 167.116 64.6C167.862 67.7467 168.236 71.24 168.236 75.08C168.236 77.1067 168.022 79.32 167.596 81.72C167.169 84.0667 166.422 86.3333 165.356 88.52C164.342 90.6533 162.902 92.4133 161.036 93.8C159.169 95.1333 156.769 95.8 153.836 95.8ZM155.436 89.72C158.156 89.72 160.396 89.0533 162.156 87.72C163.969 86.3867 165.302 84.6267 166.156 82.44C167.009 80.2 167.436 77.7467 167.436 75.08C167.436 72.1467 166.982 69.5867 166.076 67.4C165.222 65.16 163.889 63.4267 162.076 62.2C160.316 60.92 158.102 60.28 155.436 60.28C151.436 60.28 148.342 61.6933 146.156 64.52C143.969 67.2933 142.876 70.8133 142.876 75.08C142.876 77.9067 143.409 80.44 144.476 82.68C145.596 84.8667 147.089 86.6 148.956 87.88C150.876 89.1067 153.036 89.72 155.436 89.72ZM167.436 55H173.836V95H167.996C167.996 95 167.942 94.52 167.836 93.56C167.782 92.6 167.702 91.48 167.596 90.2C167.489 88.92 167.436 87.8533 167.436 87V55ZM212.743 95V69.88C212.743 67.8 212.423 66.0933 211.783 64.76C211.143 63.3733 210.183 62.3333 208.903 61.64C207.623 60.9467 206.023 60.6 204.103 60.6C201.916 60.6 199.889 61.16 198.023 62.28C196.156 63.4 194.609 64.9467 193.383 66.92C192.209 68.84 191.489 71.08 191.223 73.64L191.143 69C191.409 66.76 191.943 64.7333 192.743 62.92C193.596 61.1067 194.636 59.56 195.863 58.28C197.143 56.9467 198.583 55.9333 200.182 55.24C201.836 54.5467 203.569 54.2 205.383 54.2C207.516 54.2 209.436 54.52 211.143 55.16C212.849 55.8 214.289 56.7333 215.463 57.96C216.636 59.1867 217.543 60.68 218.183 62.44C218.823 64.1467 219.143 66.0933 219.143 68.28V95H212.743ZM185.223 95V39H191.623V95H185.223ZM257.895 82.12H263.895C263.468 84.7333 262.508 87.08 261.015 89.16C259.575 91.1867 257.655 92.8133 255.255 94.04C252.908 95.2133 250.188 95.8 247.095 95.8C243.362 95.8 240.002 94.92 237.015 93.16C234.028 91.3467 231.655 88.8933 229.895 85.8C228.188 82.6533 227.335 79.08 227.335 75.08C227.335 71.08 228.162 67.5067 229.815 64.36C231.522 61.2133 233.842 58.7333 236.775 56.92C239.708 55.1067 243.015 54.2 246.695 54.2C250.588 54.2 253.868 55.08 256.535 56.84C259.255 58.5467 261.255 61.08 262.535 64.44C263.868 67.7467 264.402 71.8267 264.135 76.68H233.735C234.002 79.2933 234.722 81.5867 235.895 83.56C237.068 85.5333 238.615 87.08 240.535 88.2C242.455 89.2667 244.642 89.8 247.095 89.8C249.815 89.8 252.108 89.1067 253.975 87.72C255.895 86.28 257.202 84.4133 257.895 82.12ZM246.935 60.2C243.628 60.2 240.855 61.16 238.615 63.08C236.375 65 234.882 67.6133 234.135 70.92H257.575C257.362 67.4 256.215 64.7333 254.135 62.92C252.108 61.1067 249.708 60.2 246.935 60.2ZM287.508 95.8C284.308 95.8 281.374 94.92 278.708 93.16C276.094 91.3467 274.014 88.8933 272.467 85.8C270.921 82.6533 270.148 79.08 270.148 75.08C270.148 71.08 270.894 67.5067 272.388 64.36C273.881 61.2133 275.934 58.7333 278.548 56.92C281.161 55.1067 284.148 54.2 287.508 54.2C290.494 54.2 292.921 54.76 294.788 55.88C296.708 56.9467 298.174 58.44 299.188 60.36C300.201 62.28 300.894 64.4933 301.268 67C301.694 69.5067 301.908 72.2 301.908 75.08C301.908 77.1067 301.694 79.32 301.268 81.72C300.841 84.0667 300.094 86.3333 299.028 88.52C298.014 90.6533 296.574 92.4133 294.708 93.8C292.841 95.1333 290.441 95.8 287.508 95.8ZM289.108 89.72C291.828 89.72 294.068 89.0533 295.828 87.72C297.641 86.3867 298.974 84.6267 299.828 82.44C300.681 80.2 301.108 77.7467 301.108 75.08C301.108 72.1467 300.654 69.5867 299.748 67.4C298.894 65.16 297.561 63.4267 295.748 62.2C293.988 60.92 291.774 60.28 289.108 60.28C285.108 60.28 282.014 61.6933 279.828 64.52C277.641 67.2933 276.548 70.8133 276.548 75.08C276.548 77.9067 277.081 80.44 278.148 82.68C279.268 84.8667 280.761 86.6 282.628 87.88C284.548 89.1067 286.708 89.72 289.108 89.72ZM301.108 39H307.508V95H301.668C301.561 93.8267 301.428 92.44 301.268 90.84C301.161 89.24 301.108 87.96 301.108 87V39ZM319.106 55H325.506V95H319.106V55ZM338.306 61C335.586 61 333.293 61.6933 331.426 63.08C329.613 64.4133 328.173 66.0667 327.106 68.04C326.093 69.96 325.426 71.8267 325.106 73.64L325.026 69C325.026 68.52 325.133 67.72 325.346 66.6C325.56 65.48 325.96 64.2267 326.546 62.84C327.133 61.4 327.906 60.04 328.866 58.76C329.88 57.4267 331.16 56.3333 332.706 55.48C334.253 54.6267 336.12 54.2 338.306 54.2V61ZM362.873 95.8C359.459 95.8 356.259 94.9733 353.273 93.32C350.286 91.6667 347.859 89.2933 345.993 86.2C344.179 83.0533 343.273 79.3467 343.273 75.08C343.273 70.8133 344.179 67.1333 345.993 64.04C347.859 60.8933 350.286 58.4667 353.273 56.76C356.259 55.0533 359.459 54.2 362.873 54.2C366.286 54.2 369.459 55.0533 372.393 56.76C375.379 58.4667 377.779 60.8933 379.593 64.04C381.406 67.1333 382.313 70.8133 382.313 75.08C382.313 79.3467 381.406 83.0533 379.593 86.2C377.779 89.2933 375.379 91.6667 372.393 93.32C369.459 94.9733 366.286 95.8 362.873 95.8ZM362.873 89.8C365.113 89.8 367.219 89.24 369.193 88.12C371.166 87 372.766 85.3467 373.993 83.16C375.273 80.92 375.913 78.2267 375.913 75.08C375.913 71.9333 375.273 69.2667 373.993 67.08C372.766 64.84 371.166 63.1333 369.193 61.96C367.219 60.7867 365.113 60.2 362.873 60.2C360.633 60.2 358.499 60.7867 356.473 61.96C354.499 63.08 352.873 64.76 351.593 67C350.313 69.1867 349.673 71.88 349.673 75.08C349.673 78.2267 350.286 80.92 351.513 83.16C352.793 85.3467 354.446 87 356.473 88.12C358.499 89.24 360.633 89.8 362.873 89.8ZM390.434 55H396.834V95H390.434V55ZM410.594 54.2C412.728 54.2 414.648 54.52 416.354 55.16C418.061 55.8 419.501 56.7333 420.674 57.96C421.848 59.1867 422.754 60.68 423.394 62.44C424.034 64.1467 424.354 66.0933 424.354 68.28V95H417.954V69.88C417.954 66.7867 417.234 64.4667 415.794 62.92C414.354 61.3733 412.194 60.6 409.314 60.6C407.128 60.6 405.101 61.16 403.234 62.28C401.368 63.4 399.821 64.9467 398.594 66.92C397.421 68.84 396.701 71.08 396.434 73.64L396.354 69C396.621 66.76 397.154 64.7333 397.954 62.92C398.808 61.1067 399.848 59.56 401.074 58.28C402.354 56.9467 403.794 55.9333 405.394 55.24C407.048 54.5467 408.781 54.2 410.594 54.2ZM458.488 81.4V75.4H483.448V81.4H458.488ZM447.928 95L467.688 43H474.408L494.328 95H487.448L470.088 47.96H472.008L454.648 95H447.928ZM503.938 43H510.338V95H503.938V43Z" fill="url(#paint0_linear_310_121)"/>
<defs>
<linearGradient id="paint0_linear_310_121" x1="5.8103" y1="69" x2="535.853" y2="80.4259" gradientUnits="userSpaceOnUse">
<stop stop-color="#6CE5FF"/>
<stop offset="1" stop-color="#AF6CF2"/>
</linearGradient>
</defs>
</svg>
